<svg width="512" height="512" viewBox="0 0 512 512" fill="none" xmlns="http://www.w3.org/2000/svg">
<g clip-path="url(#clip0)">
<path d="M280.977 422.2C280.977 409.614 270.738 399.376 258.153 399.376C245.567 399.376 235.329 409.615 235.329 422.2C235.329 434.786 245.568 445.024 258.153 445.024C270.738 445.024 280.977 434.785 280.977 422.2ZM250.329 422.2C250.329 417.886 253.839 414.377 258.152 414.377C262.465 414.377 265.975 417.886 265.975 422.2C265.975 426.513 262.465 430.023 258.152 430.023C253.839 430.023 250.329 426.513 250.329 422.2Z" fill="#580058"/>
<path d="M467.324 260.067C481.662 237.107 481.793 208.13 467.293 184.902L420.004 109.153C420.003 109.152 420.002 109.15 420.001 109.148C420 109.147 419.999 109.145 419.998 109.143L372.709 33.3931C351.971 0.174084 308.07 -9.97991 274.852 10.7571C258.759 20.8041 247.542 36.5151 243.266 54.9981C242.453 58.5111 241.914 62.0451 241.636 65.5751C223.136 64.6741 205.081 70.9751 191.055 83.4651L124.365 142.853C124.364 142.854 124.363 142.855 124.362 142.855C124.361 142.856 124.36 142.857 124.36 142.857L57.669 202.246C43.502 214.863 35.097 232.242 33.999 251.181C32.902 270.121 39.247 288.353 51.863 302.52C57.759 309.14 64.719 314.528 72.549 318.531C73.643 319.09 74.808 319.355 75.957 319.355C78.684 319.355 81.314 317.862 82.641 315.268C84.527 311.58 83.066 307.062 79.377 305.175C73.209 302.022 67.72 297.772 63.065 292.544C42.522 269.476 44.577 233.994 67.646 213.45L128.738 159.047L186.626 224.051C180.226 224.816 173.889 226.445 167.772 228.979C150.246 236.238 136.594 249.89 129.335 267.417C123.997 280.305 122.599 294.152 125.111 307.549C120.115 309.484 114.873 310.688 109.461 311.125C105.332 311.459 102.256 315.076 102.59 319.205C102.907 323.128 106.189 326.101 110.058 326.101C110.26 326.101 110.465 326.093 110.67 326.076C117.134 325.553 123.404 324.155 129.409 321.944C136.687 339.388 150.302 352.975 167.771 360.211L245.113 392.247C246.746 392.923 248.439 393.244 250.105 393.244C255.244 393.244 260.13 390.199 262.216 385.163L266.538 374.727C269.732 376.482 273.363 377.458 277.133 377.458C289.309 377.458 299.213 367.552 299.213 355.377C299.213 345.354 292.497 336.874 283.33 334.188L300.109 293.681L326.591 357.616C315.601 360.603 307.493 370.664 307.493 382.586C307.493 396.855 319.102 408.463 333.37 408.463C344.573 408.463 354.219 401.398 357.776 391.14L432.446 360.211C468.627 345.224 485.87 303.596 470.883 267.415C469.835 264.879 468.635 262.435 467.324 260.067ZM139.941 149.072L201.033 94.6691C212.382 84.5621 227.081 79.6031 242.078 80.6381C243.417 90.4521 246.813 99.9621 252.215 108.615L286.951 164.257C283.952 169.523 280.137 174.254 275.545 178.343L219.725 228.052C215.633 226.525 211.457 225.39 207.235 224.641L139.941 149.072ZM284.214 355.378C284.214 359.282 281.038 362.458 277.135 362.458C275.354 362.458 273.674 361.767 272.392 360.601L277.481 348.315C281.223 348.498 284.214 351.591 284.214 355.378ZM249.09 377.658L173.513 346.353C144.974 334.531 131.373 301.696 143.194 273.157C155.016 244.619 187.851 231.017 216.39 242.838L291.967 274.143L249.09 377.658ZM300.111 261.317C299.899 261.216 299.692 261.106 299.473 261.016L235.175 234.383L285.523 189.546C289.35 186.138 292.745 182.37 295.715 178.293L337.781 245.677L300.75 261.016C300.53 261.105 300.323 261.216 300.111 261.317ZM333.373 393.463C327.376 393.463 322.496 388.584 322.496 382.586C322.496 376.9 326.884 372.226 332.451 371.756L338.004 385.163C338.785 387.048 339.958 388.654 341.39 389.926C339.396 392.115 336.535 393.463 333.373 393.463ZM457.027 316.034C451.3 329.859 440.533 340.626 426.708 346.353L351.131 377.658L308.254 274.144L383.831 242.839C397.656 237.112 412.883 237.112 426.708 242.839C437.15 247.164 445.842 254.368 451.941 263.588C452.032 263.746 452.131 263.899 452.234 264.051C454.083 266.908 455.696 269.946 457.027 273.157C462.754 286.982 462.754 302.21 457.027 316.034ZM457.643 246.581C450.729 239.03 442.19 233.014 432.449 228.979C414.923 221.719 395.617 221.719 378.091 228.979L351.832 239.856L316.205 182.787L372.469 147.662C375.983 145.469 377.053 140.842 374.86 137.328C372.666 133.814 368.04 132.744 364.525 134.938L308.261 170.063L264.941 100.671C259.824 92.4741 256.981 83.3041 256.506 73.9111C256.506 73.6981 256.497 73.4861 256.479 73.2771C256.286 68.3321 256.737 63.3321 257.882 58.3791C261.255 43.8001 270.103 31.4071 282.796 23.4821C308.999 7.12409 343.626 15.1351 359.984 41.3371L403.304 110.73L394.414 116.28C390.9 118.473 389.83 123.1 392.023 126.615C393.446 128.893 395.891 130.144 398.392 130.144C399.748 130.144 401.121 129.776 402.357 129.005L411.246 123.456L454.566 192.848C464.864 209.339 465.807 229.507 457.643 246.581Z" fill="#580058"/>
<path d="M322.338 417.7C310.162 417.7 300.258 427.606 300.258 439.78C300.258 451.956 310.162 461.861 322.338 461.861C334.514 461.861 344.419 451.955 344.419 439.78C344.419 427.605 334.514 417.7 322.338 417.7ZM322.338 446.86C318.435 446.86 315.259 443.684 315.259 439.78C315.259 435.877 318.435 432.701 322.338 432.701C326.242 432.701 329.418 435.877 329.418 439.78C329.419 443.684 326.242 446.86 322.338 446.86Z" fill="#580058"/>
<path d="M277.134 457.627C262.144 457.627 249.949 469.823 249.949 484.813C249.949 499.803 262.144 512 277.134 512C292.125 512 304.321 499.804 304.321 484.814C304.32 469.823 292.125 457.627 277.134 457.627ZM277.134 496.999C270.415 496.999 264.948 491.533 264.948 484.813C264.948 478.093 270.414 472.627 277.134 472.627C283.854 472.627 289.321 478.093 289.321 484.813C289.319 491.533 283.852 496.999 277.134 496.999Z" fill="#580058"/>
</g>
<defs>
<clipPath id="clip0">
<rect width="512" height="512" fill="white"/>
</clipPath>
</defs>
</svg>
